<svg id="visual" viewBox="0 0 640 300" width="640" height="300" xmlns="http://www.w3.org/2000/svg" xmlns:xlink="http://www.w3.org/1999/xlink" version="1.1"><rect x="0" y="0" width="640" height="300" fill="#FEF3EA"></rect><path d="M0 54L15.2 59.5C30.3 65 60.7 76 91.2 78.3C121.7 80.7 152.3 74.3 182.8 73.8C213.3 73.3 243.7 78.7 274.2 75.5C304.7 72.3 335.3 60.7 365.8 55.2C396.3 49.7 426.7 50.3 457.2 59C487.7 67.7 518.3 84.3 548.8 87.2C579.3 90 609.7 79 624.8 73.5L640 68L640 301L624.8 301C609.7 301 579.3 301 548.8 301C518.3 301 487.7 301 457.2 301C426.7 301 396.3 301 365.8 301C335.3 301 304.7 301 274.2 301C243.7 301 213.3 301 182.8 301C152.3 301 121.7 301 91.2 301C60.7 301 30.3 301 15.2 301L0 301Z" fill="#fef3ea"></path><path d="M0 109L15.2 110.2C30.3 111.3 60.7 113.7 91.2 113.5C121.7 113.3 152.3 110.7 182.8 105C213.3 99.3 243.7 90.7 274.2 92.8C304.7 95 335.3 108 365.8 112C396.3 116 426.7 111 457.2 104.3C487.7 97.7 518.3 89.3 548.8 86.2C579.3 83 609.7 85 624.8 86L640 87L640 301L624.8 301C609.7 301 579.3 301 548.8 301C518.3 301 487.7 301 457.2 301C426.7 301 396.3 301 365.8 301C335.3 301 304.7 301 274.2 301C243.7 301 213.3 301 182.8 301C152.3 301 121.7 301 91.2 301C60.7 301 30.3 301 15.2 301L0 301Z" fill="#ffebd1"></path><path d="M0 132L15.2 135.7C30.3 139.3 60.7 146.7 91.2 150.2C121.7 153.7 152.3 153.3 182.8 148.2C213.3 143 243.7 133 274.2 126C304.7 119 335.3 115 365.8 119.2C396.3 123.3 426.7 135.7 457.2 140C487.7 144.3 518.3 140.7 548.8 138.8C579.3 137 609.7 137 624.8 137L640 137L640 301L624.8 301C609.7 301 579.3 301 548.8 301C518.3 301 487.7 301 457.2 301C426.7 301 396.3 301 365.8 301C335.3 301 304.7 301 274.2 301C243.7 301 213.3 301 182.8 301C152.3 301 121.7 301 91.2 301C60.7 301 30.3 301 15.2 301L0 301Z" fill="#ffe3b7"></path><path d="M0 146L15.2 147.7C30.3 149.3 60.7 152.7 91.2 152.5C121.7 152.3 152.3 148.7 182.8 152.8C213.3 157 243.7 169 274.2 171.3C304.7 173.7 335.3 166.3 365.8 165.7C396.3 165 426.7 171 457.2 172C487.7 173 518.3 169 548.8 162.3C579.3 155.7 609.7 146.3 624.8 141.7L640 137L640 301L624.8 301C609.7 301 579.3 301 548.8 301C518.3 301 487.7 301 457.2 301C426.7 301 396.3 301 365.8 301C335.3 301 304.7 301 274.2 301C243.7 301 213.3 301 182.8 301C152.3 301 121.7 301 91.2 301C60.7 301 30.3 301 15.2 301L0 301Z" fill="#ffde9d"></path><path d="M0 199L15.2 197.5C30.3 196 60.7 193 91.2 193.8C121.7 194.7 152.3 199.3 182.8 201.7C213.3 204 243.7 204 274.2 201.2C304.7 198.3 335.3 192.7 365.8 187.2C396.3 181.7 426.7 176.3 457.2 176.2C487.7 176 518.3 181 548.8 181.7C579.3 182.3 609.7 178.7 624.8 176.8L640 175L640 301L624.8 301C609.7 301 579.3 301 548.8 301C518.3 301 487.7 301 457.2 301C426.7 301 396.3 301 365.8 301C335.3 301 304.7 301 274.2 301C243.7 301 213.3 301 182.8 301C152.3 301 121.7 301 91.2 301C60.7 301 30.3 301 15.2 301L0 301Z" fill="#ffd982"></path><path d="M0 200L15.2 202C30.3 204 60.7 208 91.2 207.8C121.7 207.7 152.3 203.3 182.8 204.7C213.3 206 243.7 213 274.2 212.2C304.7 211.3 335.3 202.7 365.8 204.3C396.3 206 426.7 218 457.2 218C487.7 218 518.3 206 548.8 201C579.3 196 609.7 198 624.8 199L640 200L640 301L624.8 301C609.7 301 579.3 301 548.8 301C518.3 301 487.7 301 457.2 301C426.7 301 396.3 301 365.8 301C335.3 301 304.7 301 274.2 301C243.7 301 213.3 301 182.8 301C152.3 301 121.7 301 91.2 301C60.7 301 30.3 301 15.2 301L0 301Z" fill="#ffd466"></path><path d="M0 235L15.2 234C30.3 233 60.7 231 91.2 234C121.7 237 152.3 245 182.8 245.3C213.3 245.7 243.7 238.3 274.2 235.3C304.7 232.3 335.3 233.7 365.8 236.5C396.3 239.3 426.7 243.7 457.2 244C487.7 244.3 518.3 240.7 548.8 238.8C579.3 237 609.7 237 624.8 237L640 237L640 301L624.8 301C609.7 301 579.3 301 548.8 301C518.3 301 487.7 301 457.2 301C426.7 301 396.3 301 365.8 301C335.3 301 304.7 301 274.2 301C243.7 301 213.3 301 182.8 301C152.3 301 121.7 301 91.2 301C60.7 301 30.3 301 15.2 301L0 301Z" fill="#fdd046"></path><path d="M0 256L15.2 258C30.3 260 60.7 264 91.2 266.5C121.7 269 152.3 270 182.8 270.3C213.3 270.7 243.7 270.3 274.2 268.2C304.7 266 335.3 262 365.8 260C396.3 258 426.7 258 457.2 258.7C487.7 259.3 518.3 260.7 548.8 262.8C579.3 265 609.7 268 624.8 269.5L640 271L640 301L624.8 301C609.7 301 579.3 301 548.8 301C518.3 301 487.7 301 457.2 301C426.7 301 396.3 301 365.8 301C335.3 301 304.7 301 274.2 301C243.7 301 213.3 301 182.8 301C152.3 301 121.7 301 91.2 301C60.7 301 30.3 301 15.2 301L0 301Z" fill="#facc15"></path></svg>