<svg id="visual" viewBox="0 0 960 200" width="960" height="200" xmlns="http://www.w3.org/2000/svg" xmlns:xlink="http://www.w3.org/1999/xlink" version="1.1"><rect x="0" y="0" width="960" height="200" fill="#FEF3EA"></rect><path d="M0 55L22.8 57.5C45.7 60 91.3 65 137 61.8C182.7 58.7 228.3 47.3 274 44.7C319.7 42 365.3 48 411.2 50.7C457 53.3 503 52.7 548.8 49.3C594.7 46 640.3 40 686 38.2C731.7 36.3 777.3 38.7 823 41.3C868.7 44 914.3 47 937.2 48.5L960 50L960 201L937.2 201C914.3 201 868.7 201 823 201C777.3 201 731.7 201 686 201C640.3 201 594.7 201 548.8 201C503 201 457 201 411.2 201C365.3 201 319.7 201 274 201C228.3 201 182.7 201 137 201C91.3 201 45.7 201 22.8 201L0 201Z" fill="#fef3ea"></path><path d="M0 55L22.8 58.2C45.7 61.3 91.3 67.7 137 70.8C182.7 74 228.3 74 274 72.3C319.7 70.7 365.3 67.3 411.2 67.8C457 68.3 503 72.7 548.8 76C594.7 79.3 640.3 81.7 686 80.5C731.7 79.3 777.3 74.7 823 74.5C868.7 74.3 914.3 78.7 937.2 80.8L960 83L960 201L937.2 201C914.3 201 868.7 201 823 201C777.3 201 731.7 201 686 201C640.3 201 594.7 201 548.8 201C503 201 457 201 411.2 201C365.3 201 319.7 201 274 201C228.3 201 182.7 201 137 201C91.3 201 45.7 201 22.8 201L0 201Z" fill="#ffe9cd"></path><path d="M0 98L22.8 97C45.7 96 91.3 94 137 95.8C182.7 97.7 228.3 103.3 274 105.7C319.7 108 365.3 107 411.2 107.2C457 107.3 503 108.7 548.8 106.7C594.7 104.7 640.3 99.3 686 94.7C731.7 90 777.3 86 823 87.7C868.7 89.3 914.3 96.7 937.2 100.3L960 104L960 201L937.2 201C914.3 201 868.7 201 823 201C777.3 201 731.7 201 686 201C640.3 201 594.7 201 548.8 201C503 201 457 201 411.2 201C365.3 201 319.7 201 274 201C228.3 201 182.7 201 137 201C91.3 201 45.7 201 22.8 201L0 201Z" fill="#ffe1af"></path><path d="M0 129L22.8 128.2C45.7 127.3 91.3 125.7 137 124.7C182.7 123.7 228.3 123.3 274 123.2C319.7 123 365.3 123 411.2 120.7C457 118.3 503 113.7 548.8 114.7C594.7 115.7 640.3 122.3 686 121.5C731.7 120.7 777.3 112.3 823 109.5C868.7 106.7 914.3 109.3 937.2 110.7L960 112L960 201L937.2 201C914.3 201 868.7 201 823 201C777.3 201 731.7 201 686 201C640.3 201 594.7 201 548.8 201C503 201 457 201 411.2 201C365.3 201 319.7 201 274 201C228.3 201 182.7 201 137 201C91.3 201 45.7 201 22.8 201L0 201Z" fill="#ffdb90"></path><path d="M0 126L22.8 127.3C45.7 128.7 91.3 131.3 137 130.8C182.7 130.3 228.3 126.7 274 126.7C319.7 126.7 365.3 130.3 411.2 131.7C457 133 503 132 548.8 130.5C594.7 129 640.3 127 686 128.3C731.7 129.7 777.3 134.3 823 135.7C868.7 137 914.3 135 937.2 134L960 133L960 201L937.2 201C914.3 201 868.7 201 823 201C777.3 201 731.7 201 686 201C640.3 201 594.7 201 548.8 201C503 201 457 201 411.2 201C365.3 201 319.7 201 274 201C228.3 201 182.7 201 137 201C91.3 201 45.7 201 22.8 201L0 201Z" fill="#ffd670"></path><path d="M0 156L22.8 154.3C45.7 152.7 91.3 149.3 137 149.2C182.7 149 228.3 152 274 154.7C319.7 157.3 365.3 159.7 411.2 159.5C457 159.3 503 156.7 548.8 155.2C594.7 153.7 640.3 153.3 686 155.2C731.7 157 777.3 161 823 159.8C868.7 158.7 914.3 152.3 937.2 149.2L960 146L960 201L937.2 201C914.3 201 868.7 201 823 201C777.3 201 731.7 201 686 201C640.3 201 594.7 201 548.8 201C503 201 457 201 411.2 201C365.3 201 319.7 201 274 201C228.3 201 182.7 201 137 201C91.3 201 45.7 201 22.8 201L0 201Z" fill="#fed14c"></path><path d="M0 183L22.8 181.5C45.7 180 91.3 177 137 175.2C182.7 173.3 228.3 172.7 274 174.3C319.7 176 365.3 180 411.2 179.3C457 178.7 503 173.3 548.8 171C594.7 168.7 640.3 169.3 686 171.7C731.7 174 777.3 178 823 178.2C868.7 178.3 914.3 174.7 937.2 172.8L960 171L960 201L937.2 201C914.3 201 868.7 201 823 201C777.3 201 731.7 201 686 201C640.3 201 594.7 201 548.8 201C503 201 457 201 411.2 201C365.3 201 319.7 201 274 201C228.3 201 182.7 201 137 201C91.3 201 45.7 201 22.8 201L0 201Z" fill="#facc15"></path></svg>